<?xml version="1.0" standalone="no"?>
<svg xmlns:xlink="http://www.w3.org/1999/xlink" id="wave" style="transform:rotate(180deg); transition: 0.3s" viewBox="0 0 1440 490" version="1.1" xmlns="http://www.w3.org/2000/svg"><defs><linearGradient id="sw-gradient-0" x1="0" x2="0" y1="1" y2="0"><stop stop-color="rgba(62, 144.9, 243, 1)" offset="0%"/><stop stop-color="rgba(77.89, 177.874, 177.874, 1)" offset="100%"/></linearGradient></defs><path style="transform:translate(0, 0px); opacity:1" fill="url(#sw-gradient-0)" d="M0,441L30,424.7C60,408,120,376,180,318.5C240,261,300,180,360,130.7C420,82,480,65,540,65.3C600,65,660,82,720,138.8C780,196,840,294,900,318.5C960,343,1020,294,1080,269.5C1140,245,1200,245,1260,220.5C1320,196,1380,147,1440,138.8C1500,131,1560,163,1620,212.3C1680,261,1740,327,1800,334.8C1860,343,1920,294,1980,302.2C2040,310,2100,376,2160,383.8C2220,392,2280,343,2340,310.3C2400,278,2460,261,2520,261.3C2580,261,2640,278,2700,269.5C2760,261,2820,229,2880,236.8C2940,245,3000,294,3060,294C3120,294,3180,245,3240,261.3C3300,278,3360,359,3420,367.5C3480,376,3540,310,3600,310.3C3660,310,3720,376,3780,351.2C3840,327,3900,212,3960,196C4020,180,4080,261,4140,302.2C4200,343,4260,343,4290,343L4320,343L4320,490L4290,490C4260,490,4200,490,4140,490C4080,490,4020,490,3960,490C3900,490,3840,490,3780,490C3720,490,3660,490,3600,490C3540,490,3480,490,3420,490C3360,490,3300,490,3240,490C3180,490,3120,490,3060,490C3000,490,2940,490,2880,490C2820,490,2760,490,2700,490C2640,490,2580,490,2520,490C2460,490,2400,490,2340,490C2280,490,2220,490,2160,490C2100,490,2040,490,1980,490C1920,490,1860,490,1800,490C1740,490,1680,490,1620,490C1560,490,1500,490,1440,490C1380,490,1320,490,1260,490C1200,490,1140,490,1080,490C1020,490,960,490,900,490C840,490,780,490,720,490C660,490,600,490,540,490C480,490,420,490,360,490C300,490,240,490,180,490C120,490,60,490,30,490L0,490Z"/><defs><linearGradient id="sw-gradient-1" x1="0" x2="0" y1="1" y2="0"><stop stop-color="rgba(62, 138.769, 243, 1)" offset="0%"/><stop stop-color="rgba(11, 97.958, 255, 1)" offset="100%"/></linearGradient></defs><path style="transform:translate(0, 50px); opacity:0.9" fill="url(#sw-gradient-1)" d="M0,196L30,171.5C60,147,120,98,180,73.5C240,49,300,49,360,98C420,147,480,245,540,285.8C600,327,660,310,720,277.7C780,245,840,196,900,220.5C960,245,1020,343,1080,334.8C1140,327,1200,212,1260,187.8C1320,163,1380,229,1440,228.7C1500,229,1560,163,1620,138.8C1680,114,1740,131,1800,138.8C1860,147,1920,147,1980,138.8C2040,131,2100,114,2160,147C2220,180,2280,261,2340,253.2C2400,245,2460,147,2520,155.2C2580,163,2640,278,2700,285.8C2760,294,2820,196,2880,204.2C2940,212,3000,327,3060,359.3C3120,392,3180,343,3240,318.5C3300,294,3360,294,3420,253.2C3480,212,3540,131,3600,138.8C3660,147,3720,245,3780,310.3C3840,376,3900,408,3960,383.8C4020,359,4080,278,4140,269.5C4200,261,4260,327,4290,359.3L4320,392L4320,490L4290,490C4260,490,4200,490,4140,490C4080,490,4020,490,3960,490C3900,490,3840,490,3780,490C3720,490,3660,490,3600,490C3540,490,3480,490,3420,490C3360,490,3300,490,3240,490C3180,490,3120,490,3060,490C3000,490,2940,490,2880,490C2820,490,2760,490,2700,490C2640,490,2580,490,2520,490C2460,490,2400,490,2340,490C2280,490,2220,490,2160,490C2100,490,2040,490,1980,490C1920,490,1860,490,1800,490C1740,490,1680,490,1620,490C1560,490,1500,490,1440,490C1380,490,1320,490,1260,490C1200,490,1140,490,1080,490C1020,490,960,490,900,490C840,490,780,490,720,490C660,490,600,490,540,490C480,490,420,490,360,490C300,490,240,490,180,490C120,490,60,490,30,490L0,490Z"/><defs><linearGradient id="sw-gradient-2" x1="0" x2="0" y1="1" y2="0"><stop stop-color="rgba(62, 108.112, 243, 1)" offset="0%"/><stop stop-color="rgba(11, 131.02, 255, 1)" offset="100%"/></linearGradient></defs><path style="transform:translate(0, 100px); opacity:0.8" fill="url(#sw-gradient-2)" d="M0,343L30,359.3C60,376,120,408,180,383.8C240,359,300,278,360,253.2C420,229,480,261,540,228.7C600,196,660,98,720,57.2C780,16,840,33,900,81.7C960,131,1020,212,1080,212.3C1140,212,1200,131,1260,81.7C1320,33,1380,16,1440,57.2C1500,98,1560,196,1620,253.2C1680,310,1740,327,1800,285.8C1860,245,1920,147,1980,106.2C2040,65,2100,82,2160,138.8C2220,196,2280,294,2340,334.8C2400,376,2460,359,2520,359.3C2580,359,2640,376,2700,326.7C2760,278,2820,163,2880,155.2C2940,147,3000,245,3060,245C3120,245,3180,147,3240,114.3C3300,82,3360,114,3420,122.5C3480,131,3540,114,3600,122.5C3660,131,3720,163,3780,147C3840,131,3900,65,3960,32.7C4020,0,4080,0,4140,16.3C4200,33,4260,65,4290,81.7L4320,98L4320,490L4290,490C4260,490,4200,490,4140,490C4080,490,4020,490,3960,490C3900,490,3840,490,3780,490C3720,490,3660,490,3600,490C3540,490,3480,490,3420,490C3360,490,3300,490,3240,490C3180,490,3120,490,3060,490C3000,490,2940,490,2880,490C2820,490,2760,490,2700,490C2640,490,2580,490,2520,490C2460,490,2400,490,2340,490C2280,490,2220,490,2160,490C2100,490,2040,490,1980,490C1920,490,1860,490,1800,490C1740,490,1680,490,1620,490C1560,490,1500,490,1440,490C1380,490,1320,490,1260,490C1200,490,1140,490,1080,490C1020,490,960,490,900,490C840,490,780,490,720,490C660,490,600,490,540,490C480,490,420,490,360,490C300,490,240,490,180,490C120,490,60,490,30,490L0,490Z"/><defs><linearGradient id="sw-gradient-3" x1="0" x2="0" y1="1" y2="0"><stop stop-color="rgba(125.165, 156.121, 212.026, 1)" offset="0%"/><stop stop-color="rgba(27.297, 42.488, 205.195, 1)" offset="100%"/></linearGradient></defs><path style="transform:translate(0, 150px); opacity:0.7" fill="url(#sw-gradient-3)" d="M0,343L30,334.8C60,327,120,310,180,261.3C240,212,300,131,360,130.7C420,131,480,212,540,253.2C600,294,660,294,720,253.2C780,212,840,131,900,138.8C960,147,1020,245,1080,269.5C1140,294,1200,245,1260,261.3C1320,278,1380,359,1440,367.5C1500,376,1560,310,1620,253.2C1680,196,1740,147,1800,163.3C1860,180,1920,261,1980,285.8C2040,310,2100,278,2160,269.5C2220,261,2280,278,2340,253.2C2400,229,2460,163,2520,122.5C2580,82,2640,65,2700,49C2760,33,2820,16,2880,8.2C2940,0,3000,0,3060,49C3120,98,3180,196,3240,261.3C3300,327,3360,359,3420,326.7C3480,294,3540,196,3600,130.7C3660,65,3720,33,3780,16.3C3840,0,3900,0,3960,8.2C4020,16,4080,33,4140,57.2C4200,82,4260,114,4290,130.7L4320,147L4320,490L4290,490C4260,490,4200,490,4140,490C4080,490,4020,490,3960,490C3900,490,3840,490,3780,490C3720,490,3660,490,3600,490C3540,490,3480,490,3420,490C3360,490,3300,490,3240,490C3180,490,3120,490,3060,490C3000,490,2940,490,2880,490C2820,490,2760,490,2700,490C2640,490,2580,490,2520,490C2460,490,2400,490,2340,490C2280,490,2220,490,2160,490C2100,490,2040,490,1980,490C1920,490,1860,490,1800,490C1740,490,1680,490,1620,490C1560,490,1500,490,1440,490C1380,490,1320,490,1260,490C1200,490,1140,490,1080,490C1020,490,960,490,900,490C840,490,780,490,720,490C660,490,600,490,540,490C480,490,420,490,360,490C300,490,240,490,180,490C120,490,60,490,30,490L0,490Z"/></svg>